<?xml version="1.0" encoding="utf-8"?>
<!DOCTYPE svg PUBLIC "-//W3C//DTD SVG 1.0//EN" "http://www.w3.org/TR/2001/REC-SVG-20010904/DTD/svg10.dtd">
<svg version="1.0" xmlns="http://www.w3.org/2000/svg" width="500px" height="500px" viewBox="0 0 500 500" preserveAspectRatio="xMidYMid meet">
 <g fill="#f0f0f1">
  <path d="M0 250 l0 -250 250 0 250 0 0 250 0 250 -250 0 -250 0 0 -250z m276.20 135.80 c20.20 -3.30 37.80 -9.80 53.80 -19.85 5.40 -3.40 13.50 -9.20 13.50 -9.70 0 -0.15 -1.80 1.10 -4 2.75 -23.55 17.45 -51.45 26.50 -81.65 26.50 -15.65 0 -27.40 -1.65 -40.65 -5.80 -15.70 -4.85 -28.55 -11.25 -40.75 -20.25 -1.85 -1.35 -3.50 -2.45 -3.65 -2.45 -0.65 0 4.35 3.65 10.85 7.90 18.10 11.75 39.45 19.40 60.55 21.60 6.30 0.65 26.25 0.20 32 -0.70z m-2.70 -8.05 c6.05 -0.90 16.65 -3.10 18.15 -3.80 1.05 -0.45 1.05 -0.45 -0.15 -0.20 -15.65 3.35 -22.05 3.95 -37.85 3.60 -14.35 -0.30 -19.20 -1 -33.40 -4.65 -0.75 -0.20 -0.85 -0.15 -0.25 0.20 1.25 0.75 12.35 3.45 17.75 4.30 2.75 0.40 5.55 0.85 6.25 0.95 3.65 0.60 24.90 0.30 29.50 -0.40z m-1.75 -10.75 c11.45 -3.95 25.85 -20 30.65 -34.25 3.65 -10.75 6 -36 5.30 -56.50 -0.30 -9.30 -0.25 -9.60 1 -13.50 2.50 -7.75 11.70 -25.20 21.45 -40.55 8.40 -13.30 7.95 -12.65 9.60 -12.75 0.85 0 1.20 -0.15 0.90 -0.30 -0.85 -0.30 -0.85 -3.65 0 -4.90 1.10 -1.60 4.70 -11.05 6.55 -17 2.85 -9.30 3.45 -12.80 3.20 -18.20 -0.40 -7.85 -2.60 -12.50 -7.45 -15.80 -1.85 -1.25 -2.75 -1.50 -5.95 -1.65 -3.75 -0.20 -18 1.50 -28.75 3.35 -12.05 2.10 -19.60 3.60 -21.75 4.30 -9.40 3 -20.40 4.60 -26.35 3.90 -2 -0.25 -3.65 -0.45 -3.65 -0.40 0 0 1.10 0.85 2.40 1.90 1.35 1 4 2.45 5.90 3.20 l3.45 1.40 20.25 0 20.25 0 3.70 1.35 c6.15 2.30 10.15 6.40 11.80 12.15 0.70 2.25 0.80 4.20 0.65 8.70 -0.25 5.30 -0.45 6.25 -2.30 11.05 -2.75 7.15 -3.15 8 -3.95 8 -0.40 0 -0.65 0.65 -0.65 1.80 0 1.90 -4.10 11.95 -10.25 25.20 -7.45 15.95 -8.80 23.40 -9.75 53.25 -0.55 18 -1.40 26 -3.55 34.80 -3.65 15.10 -10.05 26.45 -20.90 37.25 -2.90 2.85 -5.15 5.20 -5 5.20 0.15 0 1.60 -0.45 3.20 -1z m-47.90 -9.60 c-4.90 -6.05 -9.25 -14.15 -11.80 -21.90 -2.50 -7.60 -3.50 -14.15 -4.05 -26 -0.95 -20.20 -2.95 -39 -6 -56.55 -1.25 -7.40 -2.40 -11.45 -4.95 -18.20 -5.10 -13.25 -9.55 -27 -9.55 -29.55 0 -0.80 -0.20 -1.70 -0.45 -2 -0.75 -0.85 -1.55 -7.60 -1.55 -13.60 0 -11.90 3.55 -20.55 10.65 -26.05 10 -7.70 21.15 -10.85 40.30 -11.40 5.35 -0.15 9.40 -0.45 9 -0.65 -1.35 -0.70 -7.75 -2 -14.95 -3.05 -9.90 -1.45 -39.45 -1.95 -46 -0.80 -5.55 0.95 -11.65 3.35 -15.05 5.85 -10.65 8 -12.25 19.50 -4.95 36.40 1.45 3.35 2.50 6.55 2.50 7.60 0 1.30 0.25 1.90 1.05 2.25 2.35 1.10 18.95 42.95 20.90 52.75 0.30 1.50 1 6.90 1.60 12 1.95 17.80 6.05 43.50 8.75 54.95 1.90 8.05 7.50 20.85 11.35 25.80 3.10 3.95 7.30 8.35 10.90 11.25 2 1.65 3.75 3 3.85 3 0.10 0 -0.60 -0.95 -1.55 -2.10z m131.90 -11.90 c2.75 -2.75 4.85 -5 4.75 -5 -0.15 0 -2.50 2.25 -5.25 5 -2.75 2.75 -4.85 5 -4.75 5 0.15 0 2.50 -2.25 5.25 -5z m-116.05 -11.90 c1.95 -7.25 4.90 -12.90 7.90 -14.85 2.40 -1.60 6.40 -1.70 8.75 -0.25 3.15 1.90 5.55 6 7.45 12.75 l1.15 4 0 -2.40 c0.10 -4.65 -1 -14.65 -2 -18.35 -2.65 -9.95 -9.80 -16.70 -15.50 -14.70 -2.65 0.90 -5.55 2.85 -7.20 4.80 -5.20 6.10 -6.40 19.70 -3.65 39.90 l0.60 4.25 0.85 -6 c0.45 -3.30 1.20 -7.45 1.65 -9.15z m-80.20 11.25 c0 -0.05 -1.50 -1.60 -3.35 -3.35 l-3.40 -3.25 3.25 3.40 c3 3.10 3.50 3.60 3.50 3.20z m-17.55 -21.45 c-2.85 -4.30 -4.70 -6.75 -3.70 -4.90 0.95 1.70 6.30 9.50 6.55 9.50 0.10 0 -1.15 -2.10 -2.85 -4.60z m237.30 -8.40 c0.45 -0.80 0.65 -1.50 0.55 -1.50 -0.15 0 -0.60 0.70 -1.05 1.50 -0.45 0.85 -0.65 1.50 -0.55 1.50 0.15 0 0.60 -0.65 1.05 -1.50z m-243.50 -1.50 c-0.45 -0.80 -0.90 -1.50 -1.05 -1.50 -0.10 0 0.10 0.70 0.55 1.50 0.45 0.85 0.90 1.50 1.05 1.50 0.10 0 -0.10 -0.65 -0.55 -1.50z m-3.10 -5.75 c-0.45 -0.95 -0.90 -1.65 -1.05 -1.55 -0.20 0.25 1.30 3.30 1.65 3.30 0.15 0 -0.15 -0.80 -0.60 -1.75z m-3.10 -6.60 c-0.55 -1.05 -1 -1.75 -1.05 -1.55 0 0.60 1.65 3.90 1.90 3.70 0.10 -0.10 -0.30 -1.05 -0.85 -2.15z m258.35 -3.50 c6.80 -15.95 10.80 -33.40 11.85 -52.40 0.40 -6.35 -0.70 -21.35 -2.25 -30.50 -0.55 -3.30 -1 -6.95 -1 -8.10 0 -1.15 -0.20 -2.15 -0.45 -2.25 -0.25 -0.05 -1.15 -2.60 -2 -5.65 -1.70 -5.90 -4.60 -14.40 -4.85 -14.10 -0.10 0.05 0.85 3.30 2.10 7.10 1.25 3.85 2.40 8.35 2.55 10 0.15 1.65 0.50 3.15 0.75 3.30 0.70 0.45 2.70 12.95 3.35 20.60 0.75 9 0.65 23.40 -0.20 31.10 -1.80 16.10 -5.20 28.55 -12.60 46.15 -0.15 0.30 -0.15 0.60 0 0.60 0.10 0 1.35 -2.65 2.75 -5.85z m-260.95 -2.95 c-4.65 -11.85 -8.10 -26.50 -9.45 -40.15 -0.75 -7.90 -0.65 -27.95 0.25 -34.90 1.50 -11.40 5.50 -28.15 7.05 -29.45 0.40 -0.30 0.70 -1.15 0.70 -1.85 0 -0.75 0.45 -2.50 1 -3.95 0.55 -1.40 0.90 -2.65 0.80 -2.75 -0.15 -0.15 -1.05 1.85 -2.50 5.50 -0.40 1 -0.95 1.85 -1.25 1.85 -0.25 0 -0.55 1.05 -0.70 2.40 -0.10 1.30 -0.90 4.70 -1.75 7.60 -1.65 5.65 -3.05 12.55 -4.40 21.25 -1.20 7.40 -1.15 26.85 0 35.75 1.95 14.70 5.25 27.75 10.05 39.65 0.75 1.85 1.45 3.30 1.55 3.20 0.10 -0.10 -0.50 -1.95 -1.35 -4.15z m141.30 -3.50 c5.25 -0.40 11.10 -0.90 13 -1.05 l3.50 -0.35 -2.50 -0.35 c-1.35 -0.20 -10.85 -0.50 -21 -0.65 -18.30 -0.30 -18.60 -0.30 -29 -2.10 -15.35 -2.60 -14.50 -2.50 -11.50 -0.90 5 2.70 14.15 5.70 18.70 6.15 5.20 0.50 15.95 0.25 28.80 -0.75z m116.20 -7.20 c0 -0.40 -0.35 0.05 -0.70 1 -0.90 2.30 -0.85 3.20 0 1.25 0.40 -0.80 0.70 -1.85 0.70 -2.25z m2.20 -7 c2.85 -11 3.95 -17.20 4.90 -28.25 0.75 -8.85 -0.25 -24.50 -2.30 -35 -0.40 -2.20 -0.75 -4.95 -0.75 -6.10 0 -1.20 -0.20 -2.15 -0.45 -2.15 -0.20 0 -0.65 -0.75 -0.95 -1.60 l-0.50 -1.65 -0.05 1.75 c-0.05 1 0.15 2 0.40 2.25 1.30 1.30 3.40 17.75 3.90 30.50 0.50 14.15 -1.90 32.20 -6.15 45.55 -0.20 0.75 -0.15 0.80 0.20 0.20 0.25 -0.40 1.05 -2.90 1.75 -5.50z m-257.20 0.30 c-0.30 -1.30 -0.65 -2.25 -0.80 -2.15 -0.10 0.15 0.05 1.30 0.40 2.55 0.30 1.30 0.65 2.25 0.80 2.15 0.10 -0.15 -0.05 -1.30 -0.40 -2.55z m131.20 -1.80 c14.50 -0.85 24.15 -1.85 23.60 -2.45 -0.20 -0.15 -10.05 -0.45 -21.90 -0.60 l-21.60 -0.30 -10 -1.85 c-5.50 -0.95 -10.65 -1.90 -11.50 -2.05 -1.15 -0.20 -0.80 0.10 1.35 1.25 3.95 2.10 12 5 15.90 5.75 4.05 0.80 13 0.90 24.15 0.25z m-132.90 -5.10 c-1.90 -8.35 -2.80 -16.65 -3.10 -28.65 -0.35 -14.35 0.50 -23.55 3.15 -35.20 0.40 -1.75 0.65 -3.25 0.55 -3.40 -0.30 -0.30 -1.70 5.90 -2.90 12.85 -2.90 16.90 -2.30 35.90 1.65 53.65 0.60 2.65 1.15 4.75 1.30 4.65 0.10 -0.15 -0.20 -1.90 -0.65 -3.90z m136.20 -13.90 c13.20 -1.05 21.80 -2 28.05 -3.10 l3.25 -0.60 -2.70 -0.60 c-4.05 -0.95 -20.15 -1.70 -36.15 -1.70 -14.15 -0.05 -14.15 -0.05 -22.40 -1.75 -6.85 -1.40 -20.25 -4.35 -24.90 -5.50 -4 -1 4.55 4.35 14.70 9.20 7.20 3.40 9.20 4.15 12.25 4.50 6.30 0.70 14.05 0.60 27.90 -0.45z m3.55 -24.30 c10.70 -0.80 20.70 -2 24.55 -2.90 l2.70 -0.60 -3.50 -0.65 c-5.15 -0.95 -17.60 -1.50 -34.10 -1.55 -16.15 0 -17.15 -0.15 -37.15 -4.75 -4.25 -1 -8.25 -1.90 -8.85 -2 -0.95 -0.20 -1.15 -0.60 -1.15 -2.10 l0 -1.80 7.20 0.30 c8.25 0.40 7.80 0.70 7.80 -4.75 l0 -2.90 3.15 0 c1.70 0 4.55 0.45 6.25 1 1.75 0.55 4.50 1 6.15 1 l2.95 0 0 2.45 0 2.45 3.65 0.30 c1.95 0.15 5.55 0.40 7.90 0.60 l4.30 0.30 0.35 -2.75 c0.30 -2.25 0.55 -2.80 1.45 -3.05 1.45 -0.40 17.30 -0.35 18.75 0 1 0.30 1.10 0.60 1.10 4.20 l0 3.90 4.15 0.30 c2.25 0.15 5.85 0.35 8 0.50 l3.85 0.20 0 -1.80 c0 -1 0.15 -3 0.30 -4.45 l0.35 -2.60 2.30 -0.15 c2.25 -0.15 2.30 -0.20 2.45 -1.95 0.15 -1.60 0.35 -1.90 1.75 -2.20 1.40 -0.35 1.20 -0.45 -2.15 -0.95 -3.25 -0.50 -3.75 -0.70 -3.90 -1.65 -0.15 -1 -0.50 -1.10 -5.50 -1.35 -11 -0.65 -10.85 -0.70 -11 0.60 l-0.15 1.10 -10.50 0 -10.45 0 0 -2.45 0 -2.40 -7.95 -0.45 -8 -0.45 -0.30 2.40 c-0.30 2.10 -0.50 2.35 -1.60 2.35 -0.70 0 -2.10 -0.20 -3.10 -0.45 -1 -0.30 -4.40 -1 -7.55 -1.55 -3.15 -0.60 -5.95 -1.25 -6.25 -1.50 -0.25 -0.20 -1.75 -0.50 -3.25 -0.65 -2.75 -0.30 -9.90 -1.55 -12.15 -2.10 -1.10 -0.30 -1.15 -0.20 -1.15 2.85 0.05 6.25 -0.70 17.05 -1.25 17.75 -0.45 0.50 -0.40 0.85 0.05 1.40 1.40 1.70 7.75 5.40 15.95 9.25 8.15 3.90 8.90 4.15 13.25 4.50 5.60 0.50 17.95 0.20 30.30 -0.80z m-138.05 -32.20 c0 -0.45 -0.20 -0.40 -0.45 0.25 -0.25 0.55 -0.45 1.35 -0.45 1.75 0 0.45 0.20 0.40 0.45 -0.25 0.25 -0.55 0.45 -1.35 0.45 -1.75z m256.50 -0.70 c-0.30 -1.30 -0.65 -2.25 -0.80 -2.15 -0.10 0.15 0.05 1.30 0.40 2.55 0.30 1.30 0.65 2.25 0.80 2.15 0.10 -0.15 -0.05 -1.30 -0.40 -2.55z m-255.50 -2.80 c0 -0.45 -0.20 -0.40 -0.45 0.25 -0.25 0.55 -0.45 1.35 -0.45 1.75 0 0.45 0.20 0.40 0.45 -0.25 0.25 -0.55 0.45 -1.35 0.45 -1.75z m2.05 -4.50 c0.25 0 0.50 -0.75 0.45 -1.60 0 -1.50 -0.05 -1.55 -0.45 -0.50 -0.25 0.60 -0.70 1.10 -1 1.10 -0.25 0 -0.50 0.75 -0.45 1.65 0 1.45 0.05 1.50 0.45 0.50 0.25 -0.65 0.70 -1.15 1 -1.15z m130.30 -5.25 c7.70 -1.10 13.40 -2.35 12.55 -2.80 -1.30 -0.75 -9.10 -1.45 -15.95 -1.45 -7.25 0 -7.65 -0.10 -17.40 -3.90 l-2.75 -1.10 4.15 3.95 c6.70 6.35 8.35 6.85 19.40 5.30z m-132.35 -12 c0 -0.25 -0.30 0.05 -0.70 0.75 -0.40 0.70 -0.70 1.50 -0.70 1.75 0 0.30 0.30 -0.05 0.70 -0.75 0.40 -0.70 0.70 -1.45 0.70 -1.75z m168.75 -68 c-0.85 -0.40 -2.20 -0.80 -3 -1 -0.80 -0.15 -0.30 0.20 1.05 0.70 2.85 1.10 4.30 1.30 1.95 0.30z m-98.20 -2.25 c0.95 -0.55 1.55 -0.95 1.25 -0.95 -0.25 0 -1.30 0.40 -2.25 0.95 -0.95 0.55 -1.50 0.95 -1.25 0.95 0.30 0 1.30 -0.40 2.25 -0.95z m114.50 0 c-0.95 -0.55 -1.95 -0.95 -2.25 -0.95 -0.25 0 0.30 0.40 1.25 0.95 0.95 0.55 2 0.95 2.25 0.95 0.30 0 -0.30 -0.40 -1.25 -0.95z m-25.25 -0.50 c-0.55 -0.25 -1.45 -0.40 -2 -0.40 -0.80 0 -0.75 0.10 0.25 0.40 1.70 0.55 3 0.55 1.75 0z m-82.15 -2.45 c2.45 -0.95 4.30 -1.80 4.20 -1.90 -0.25 -0.25 -7.80 2.65 -8.80 3.40 -0.90 0.65 -0.85 0.60 4.60 -1.50z m27.15 0.75 c13.60 -2.30 31.05 -2.35 44.25 -0.05 8 1.35 7.90 1.35 6.50 0.75 -0.70 -0.30 -4.95 -1.15 -9.50 -1.85 -11.80 -1.85 -25.70 -1.85 -37.50 0 -4.55 0.70 -8.80 1.55 -9.50 1.85 l-1.25 0.50 1.25 -0.20 c0.70 -0.15 3.30 -0.60 5.75 -1z m76.25 0.45 c-0.70 -0.40 -1.45 -0.70 -1.75 -0.70 -0.25 0 0.05 0.30 0.75 0.70 0.70 0.40 1.50 0.70 1.75 0.70 0.30 0 -0.05 -0.30 -0.75 -0.70z m-3.15 -1.30 c-3.50 -2.05 -20.80 -6.85 -30.35 -8.45 -13.15 -2.25 -32.30 -1.85 -45.85 0.95 -5.60 1.15 -16.25 4.10 -15.95 4.40 0.10 0.10 1.75 -0.25 3.65 -0.80 4.05 -1.20 11.25 -2.65 19.15 -3.85 8.15 -1.30 28.85 -1.30 37 -0.05 10.10 1.55 18.05 3.40 25.25 5.80 7.35 2.50 8.55 2.85 7.10 2z"/>
 </g>
 <g fill="#ea008c">
  <path d="M242.70 388 c-20.75 -2.15 -42.20 -9.75 -60 -21.25 -5 -3.25 -10.75 -7.30 -11.70 -8.25 -0.15 -0.15 -2.15 -1.85 -4.50 -3.85 -8.75 -7.35 -18.90 -18.55 -25.45 -28.15 -14.20 -20.80 -22.35 -42.50 -25.85 -69 -1.20 -9.15 -1.25 -30.75 -0.05 -38.50 1.35 -8.70 2.80 -15.70 4.45 -21.50 0.85 -2.90 1.55 -5.65 1.60 -6.20 0.05 -0.80 -1.80 -1.40 -13.95 -4.60 -7.70 -2.05 -18.60 -4.70 -24.25 -5.95 -5.65 -1.25 -14.25 -3.35 -19.10 -4.60 -7.20 -1.85 -8.90 -2.45 -8.90 -3.15 0 -1.90 1.10 -1.95 8 -0.20 3.70 0.90 9.35 2.25 12.50 2.95 8.90 2 31.45 7.55 39.65 9.70 l7.45 2 0.70 -1.85 c2.65 -6.60 6.80 -15.40 9.60 -20.45 22.30 -40.15 60.50 -67.10 104.85 -73.95 9.30 -1.45 32.55 -1.35 41.50 0.20 24.20 4.15 44.20 12.85 63.75 27.65 24.45 18.55 43.65 46.95 52.30 77.35 1.60 5.75 2 6.60 2.90 6.60 0.60 0 5.80 -0.55 11.55 -1.25 21.05 -2.50 24.70 -2.85 25.50 -2.60 0.40 0.20 0.75 0.85 0.75 1.45 0 1.15 -0.25 1.20 -13.40 2.80 -7.35 0.85 -15.80 1.85 -18.85 2.15 -3 0.30 -5.55 0.60 -5.65 0.70 -0.10 0.10 0.30 3.10 0.90 6.75 3.85 23.85 2.85 45.10 -3.10 67.50 -7.10 26.90 -24.60 54.85 -45.65 72.95 -21.80 18.80 -44.10 29.20 -72.55 33.85 -5.70 0.90 -28.40 1.40 -35 0.70z m31.30 -5 c23.80 -2.85 45.70 -11.80 66.25 -27.20 6.90 -5.15 18.75 -16.75 24.35 -23.80 9.15 -11.55 16.20 -23.50 21.25 -36 9.20 -22.70 12.60 -44.95 10.60 -68.85 -0.50 -6.35 -2.60 -19.95 -3.10 -20.50 -0.50 -0.45 -3.35 0.40 -3.35 1 0 0.35 0.35 2.40 0.75 4.60 1.10 5.70 2.15 15.80 2.55 24.25 1.20 27.20 -7.45 57.80 -23.20 81.75 -22.25 33.95 -55.05 55 -95.10 61 -6.05 0.90 -28 1.10 -33.50 0.30 -7.30 -1.10 -10.30 -1.65 -15.20 -2.85 -9.35 -2.35 -22.45 -7.35 -30.80 -11.80 -6.40 -3.45 -17.75 -11.20 -23.25 -15.95 -5.55 -4.75 -14.55 -13.95 -18.60 -18.95 -3.55 -4.45 -9.85 -13.65 -12 -17.50 -3.95 -7.15 -5.20 -9.65 -7.50 -15 -13.55 -31.20 -15.80 -68 -6.25 -100.15 l1.45 -4.85 -1.55 -0.45 c-0.85 -0.20 -1.70 -0.25 -1.85 -0.10 -0.55 0.55 -3.85 12.75 -4.90 18.05 -3.25 16.45 -3.50 36.10 -0.75 53 3.45 21.25 11.05 40.70 22.65 58.05 14.20 21.30 30.65 36.20 53.05 48.10 9.25 4.90 24.35 10.20 35.10 12.35 13.10 2.60 29 3.15 42.90 1.50z m3.45 -8.25 c23.15 -3.65 45.05 -13.85 63.55 -29.50 11.65 -9.85 20 -19.80 28.75 -34.25 9.40 -15.50 15.60 -33.40 18.55 -53.80 1.10 -7.30 1.20 -22.70 0.25 -31.70 -0.75 -7.35 -2.40 -17.05 -3.05 -17.70 -0.25 -0.25 -3.95 -0.05 -8.60 0.40 -4.50 0.40 -10.60 0.90 -13.65 1.10 -6.60 0.35 -23.40 1.65 -23.50 1.85 -0.05 0.05 -1 1.50 -2.15 3.20 -11.70 17.45 -24.45 40.70 -27.40 49.90 -1.25 3.85 -1.25 4.30 -0.95 12.75 0.80 19.80 -1.70 46.50 -5.35 57.25 -3.70 11 -14.70 25.20 -23.95 30.90 -4.30 2.65 -11.30 5.25 -15.45 5.65 l-2.75 0.30 2 -1.85 c14.90 -13.85 20.95 -21.85 25.75 -34.10 4.65 -11.80 6.25 -22.40 7 -45.90 0.95 -29.85 2.30 -37.30 9.75 -53.25 3.65 -7.85 10.25 -23.15 10.25 -23.75 0 -0.40 -16.90 -0.05 -17.25 0.35 -0.15 0.10 -0.40 2.20 -0.55 4.60 l-0.35 4.40 -5.30 -0.30 c-2.90 -0.20 -7.25 -0.45 -9.60 -0.60 l-4.30 -0.30 0.25 -3.95 c0.15 -2.15 0.15 -3.95 0.05 -4 -2.10 -0.25 -14.95 -0.45 -16.20 -0.25 -1.60 0.30 -1.70 0.45 -2.05 3.15 l-0.35 2.80 -6.30 -0.35 c-3.45 -0.20 -7.70 -0.45 -9.40 -0.65 l-3.15 -0.30 0 -2.40 0 -2.45 -2.65 0 c-1.45 0 -3.85 -0.35 -5.35 -0.75 -1.50 -0.45 -3.80 -0.95 -5.10 -1.10 l-2.40 -0.30 0 2.95 c0 1.65 -0.15 3.50 -0.35 4.15 l-0.30 1.20 -7.30 -0.35 c-5.05 -0.25 -7.05 -0.20 -6.55 0.15 0.40 0.30 1.30 0.55 1.95 0.55 0.65 0 1.10 0.15 0.95 0.30 -0.20 0.15 -2.35 0.10 -4.85 -0.05 -3.55 -0.30 -4.55 -0.55 -4.55 -1.15 0 -0.40 0.30 -1 0.70 -1.30 0.50 -0.35 0.75 -1.85 0.90 -4.55 l0.15 -4 -9 -1.30 c-4.95 -0.70 -9.05 -1.25 -9.10 -1.20 -0.40 0.25 5.50 17.90 9.40 28 2.55 6.75 3.70 10.80 4.95 18.20 3.05 17.55 5.05 36.35 6 56.55 0.70 15.75 2.80 25.10 7.85 35.25 3.35 6.70 7.20 12.05 15.45 21.65 1 1.15 1.75 2.20 1.65 2.30 -0.30 0.25 -8.80 -4.95 -12.55 -7.70 -6 -4.40 -12.75 -11.95 -16.05 -18.05 -3.05 -5.50 -6.80 -15.10 -8.05 -20.50 -2.70 -11.45 -6.80 -37.15 -8.75 -54.95 -1.30 -11.40 -1.65 -13.15 -4.15 -21 -3.05 -9.40 -16.25 -41.95 -17.60 -43.30 -0.30 -0.30 -2.90 -1.05 -5.80 -1.65 -8.95 -1.80 -14 -2.95 -21 -4.75 -3.70 -0.95 -6.90 -1.60 -7.10 -1.40 -0.40 0.45 -3.05 9.60 -4.10 14.10 -4.85 21.40 -4.40 44.15 1.45 67 7.35 28.85 24.15 55 47.05 73.15 20.15 15.95 40.55 24.25 67.70 27.55 4.35 0.50 26.95 -0.15 31.95 -0.95z m41 -167.10 c0.35 -0.80 1.55 -3.75 2.65 -6.65 5.30 -13.85 1.55 -24.55 -10.15 -28.90 l-3.70 -1.35 -19.50 0.15 -19.50 0.10 -4.15 -1.45 c-4.80 -1.70 -8.90 -4.60 -11.10 -7.95 -1.65 -2.55 -1.95 -3.65 -0.60 -2.50 2.20 1.95 9.85 3.05 16.10 2.35 4.15 -0.50 11.95 -2.25 16.50 -3.70 2.15 -0.70 9.70 -2.20 21.75 -4.30 9.85 -1.70 24.90 -3.55 29.50 -3.60 3.85 0 4.90 0.15 6.95 1.15 4.25 2.15 7 6.05 8.25 11.90 0.90 4.30 0.70 12.75 -0.45 17.60 -2 8.20 -5.90 19.50 -8.55 24.70 -0.55 1.05 -0.85 2.05 -0.70 2.20 0.50 0.50 42.35 -2.50 43.10 -3.10 0.05 -0.05 -0.50 -2.10 -1.15 -4.55 -7.80 -27.70 -25.90 -54.35 -48.30 -71.15 -8.70 -6.55 -13.55 -9.50 -22.65 -13.90 -11.90 -5.75 -25.90 -9.85 -39.75 -11.75 -6.10 -0.85 -24.25 -0.85 -30.75 0 -32.45 4.15 -62.75 20.85 -84.30 46.55 -5.65 6.75 -12.80 17.65 -16.85 25.80 -2.80 5.60 -6.70 14.75 -6.45 15.05 0.25 0.20 3.45 1 15.60 3.90 5.50 1.30 11.20 2.65 12.65 2.95 1.40 0.35 2.60 0.50 2.60 0.30 0 -0.20 -1.05 -2.70 -2.30 -5.55 -5.45 -12.35 -6.35 -24.40 -2.45 -31.95 3.45 -6.65 12.05 -12.05 21.90 -13.80 4.30 -0.75 28.35 -1.05 37.10 -0.45 10.50 0.70 24.55 3 29.25 4.75 0.70 0.25 1.95 0.75 2.75 1.05 l1.50 0.55 -1.25 0.50 c-0.70 0.25 -6.20 0.70 -12.25 0.90 -17.60 0.65 -28.55 3 -36.55 7.80 -6.75 4.05 -11 8.35 -13.10 13.20 -2.90 6.75 -3.80 15.75 -2.45 23.75 l0.60 3.50 6.50 1.05 c3.60 0.60 7.90 1.25 9.65 1.45 l3.10 0.35 0.10 -1.70 c0.15 -3.05 -0.05 -4 -1.10 -4.75 -1.05 -0.75 -1.30 -1.95 -0.55 -3.10 0.35 -0.60 1.15 -0.50 4.85 0.35 6 1.40 12.65 2.60 14.35 2.60 0.75 0 1.85 0.30 2.50 0.65 0.60 0.30 1.15 0.65 1.25 0.65 0.10 0.05 -0.10 1.05 -0.40 2.20 -0.30 1.20 -0.40 2.30 -0.15 2.55 0.20 0.20 2.95 0.60 6.05 0.80 5.20 0.40 5.60 0.35 5.60 -0.45 0 -0.50 0.25 -0.90 0.50 -0.90 0.30 0 0.50 -0.45 0.50 -1.05 0 -0.70 0.25 -0.95 0.70 -0.80 0.55 0.20 0.80 -0.35 1.05 -2.25 l0.35 -2.50 2.85 0.30 c1.55 0.15 5.80 0.40 9.45 0.60 l6.60 0.35 0 2.40 c0 1.90 0.20 2.45 0.80 2.45 0.60 0 0.70 0.35 0.45 1.55 -0.25 1.10 -0.15 1.70 0.30 2 0.40 0.25 3.65 0.45 7.25 0.45 7.10 0 7.20 -0.05 7.20 -2.80 0 -0.85 0.30 -1.20 0.95 -1.20 0.65 0 1.05 -0.40 1.15 -1.10 0.15 -1.10 0.35 -1.15 4.65 -1.05 2.50 0.05 6.80 0.25 9.65 0.45 4.60 0.25 5.10 0.40 5.10 1.25 0 0.55 0.35 1.10 0.75 1.25 0.50 0.20 0.60 0.75 0.45 1.70 -0.40 1.85 0.25 2.15 4.75 2.15 3.50 -0.05 3.60 0 1.60 0.40 -3.90 0.75 -3.45 0.85 3.75 0.90 l7.05 0.05 0.60 -1.35z m72.95 -4 c1.50 -0.35 1.35 -1.20 -1.75 -10.80 -10.75 -33.40 -33.35 -62.05 -62.65 -79.55 -15.80 -9.45 -31.85 -15 -52.50 -18.15 -8 -1.20 -26 -1.20 -34 0.05 -17.80 2.75 -28.55 6.05 -43.25 13.30 -13.50 6.65 -24.15 14.40 -35.55 25.75 -9.15 9.10 -12.65 13.35 -19.30 23.35 -6.75 10.10 -16.45 30.55 -14.75 31.15 2.55 0.95 2.80 0.70 5.05 -4.75 10.85 -26.70 30.90 -50.75 54.40 -65.35 7.65 -4.75 20.55 -11.05 27.40 -13.35 15.40 -5.15 26.80 -7 43.25 -7 16.40 0 27.80 1.85 43.25 7 11.55 3.85 28.50 13.25 38.90 21.55 6.70 5.35 18.55 17.35 23.25 23.55 11.45 15.05 20.30 32.65 24.85 49.50 1.10 4.15 1.30 4.35 3.40 3.75z"/>
  <path d="M238.05 361.85 c-1.05 -3.10 -3.50 -19.20 -4.10 -26.85 -1.25 -16.25 0.50 -27.10 5.20 -32.35 2 -2.15 6.20 -4.55 8.95 -4.95 4.70 -0.80 10.80 3.05 13.80 8.65 3.10 5.80 4.10 12.25 4.90 31.05 0.25 6.95 -0.15 19.45 -0.65 18.95 -0.10 -0.10 -0.50 -2.90 -0.90 -6.15 -1.30 -11.30 -2.80 -18.40 -4.70 -22.80 -2.05 -4.70 -5.75 -8.40 -8.45 -8.40 -1.85 0 -4.80 2.30 -6.45 5.10 -4.45 7.35 -6.80 18.50 -6.85 32 -0.05 4.10 -0.10 7.40 -0.15 7.40 -0.05 0 -0.30 -0.75 -0.60 -1.65z"/>
 </g>
 <g fill="#e75baf">
  <path d="M237.95 293.45 c-4.70 -0.45 -13.20 -3.30 -19.95 -6.70 -4.40 -2.20 -5.50 -3.05 -5.50 -4.35 0 -0.50 0.05 -0.90 0.15 -0.90 0.10 0 2.60 0.45 5.65 1 22.55 4.20 24.15 4.40 43.70 4.70 16.10 0.25 22.70 0.65 27.65 1.60 1.60 0.35 1.75 0.95 0.35 1.70 -1.30 0.70 -19.65 2.40 -32.90 3 -12.05 0.55 -13 0.55 -19.15 -0.05z"/>
  <path d="M235 276.75 c-6.10 -1.20 -18.70 -6.45 -21.35 -8.90 -0.65 -0.55 -1.15 -1.35 -1.15 -1.75 0 -0.90 -0.10 -0.90 17 2.20 l12.75 2.35 18.25 0.15 c21.85 0.20 30.50 0.95 30.50 2.70 0 2.40 -46.60 5.10 -56 3.25z"/>
  <path d="M234.55 258.45 c-3.05 -0.35 -5.05 -1.10 -12.25 -4.50 -12.45 -5.95 -17.30 -9.40 -17.30 -12.40 0 -0.85 0.25 -1 1.15 -0.80 6.25 1.50 22.80 5.15 29.35 6.50 l8.30 1.70 16.70 0.10 c27.05 0.15 38 1.25 38 3.80 0 1.25 -3.20 2 -14 3.35 -17.55 2.25 -41.05 3.30 -49.95 2.25z"/>
  <path d="M235.70 234.50 c-4.35 -0.35 -5.10 -0.65 -13.25 -4.50 -12.45 -5.90 -17.45 -9.45 -17.45 -12.40 0 -0.55 0.40 -1.10 1 -1.25 0.55 -0.15 1 -0.05 1 0.20 0 0.25 1.15 0.45 2.55 0.45 1.50 0 2.40 0.20 2.20 0.50 -0.15 0.25 0.20 0.60 0.85 0.70 0.65 0.15 4.65 1.05 8.90 2.05 20.10 4.65 19.95 4.60 43.25 4.90 21.55 0.30 28.35 0.80 32.55 2.60 1.65 0.70 1.80 0.85 1.15 1.50 -2.90 2.90 -47.50 6.65 -62.75 5.25z"/>
  <path d="M233.75 211.30 c-1.65 -0.55 -1.85 -0.75 -1.10 -1.05 1.35 -0.55 8.50 0.35 8.75 1.15 0.25 0.80 -4.95 0.75 -7.65 -0.10z"/>
  <path d="M341 210.50 c0 -0.25 0.35 -0.50 0.75 -0.50 0.40 0 0.75 0.25 0.75 0.50 0 0.30 -0.35 0.50 -0.75 0.50 -0.40 0 -0.75 -0.20 -0.75 -0.50z"/>
  <path d="M300.75 209.05 c-1.40 -0.30 -1.50 -0.45 -1.65 -2.95 -0.15 -2.40 -0.05 -2.65 0.75 -2.40 0.50 0.10 2.25 0.40 3.90 0.60 3.20 0.35 6.75 1.55 6.75 2.25 0 0.65 -1.55 1.30 -4.25 1.70 -2.15 0.35 -2.35 0.45 -1.25 0.80 1.05 0.30 0.90 0.35 -0.75 0.35 -1.10 0 -2.65 -0.15 -3.50 -0.35z"/>
  <path d="M262.15 208.15 c-0.40 -0.15 -0.65 -1.20 -0.65 -2.70 l0 -2.45 2.90 -0.05 c2.80 -0.05 10.15 -0.05 13.65 0 1.70 0.05 1.75 0.10 1.60 1.70 -0.50 4.20 0.30 3.85 -8.80 3.80 -4.45 0 -8.40 -0.15 -8.70 -0.30z"/>
  <path d="M233 206.45 c-2.90 -0.25 -5.55 -0.55 -5.95 -0.70 -0.50 -0.20 -0.60 -1 -0.40 -3.30 0.15 -1.65 0.40 -3.15 0.55 -3.30 0.15 -0.15 2.90 0.20 6.15 0.80 9.20 1.70 8.90 1.60 9.05 3.45 0.10 0.90 -0.05 1.60 -0.35 1.60 -0.30 0 -0.55 0.45 -0.55 1 0 1.15 0.05 1.15 -8.50 0.45z"/>
  <path d="M205.85 197.45 c-1.10 -1.50 -1.10 -2.95 -0.05 -2.95 0.45 0 2.75 0.45 5.15 1 2.35 0.50 4.85 1.05 5.55 1.20 0.70 0.10 -1.05 0.10 -3.90 0 -4.95 -0.25 -5.10 -0.20 -5.50 0.85 l-0.45 1.10 -0.80 -1.20z"/>
  <path d="M248.15 187.95 c-2.45 -1.20 -10.40 -8.50 -11.40 -10.50 -0.95 -1.75 -1 -3.65 -0.10 -3.30 16.25 6.85 16.25 6.85 24.55 6.85 17.50 0.05 24.20 3.15 12.30 5.70 -6.10 1.30 -14.40 2.30 -18.95 2.30 -3.35 0 -4.75 -0.25 -6.40 -1.05z"/>
 </g>
</svg>